<svg width="27" height="27" viewBox="0 0 27 27" fill="none" xmlns="http://www.w3.org/2000/svg">
<path fill-rule="evenodd" clip-rule="evenodd" d="M8.88577 5.55672C9.47103 5.32378 10.1132 5.66921 10.32 6.32824C10.7834 7.80464 12.0339 8.85938 13.5002 8.85938C14.9666 8.85938 16.2172 7.80464 16.6806 6.32824C16.8874 5.66921 17.5295 5.32378 18.1149 5.55672C18.7001 5.78966 19.0068 6.51274 18.8 7.17176C18.029 9.62788 15.9489 11.3906 13.5002 11.3906C11.0517 11.3906 8.97156 9.62788 8.20063 7.17176C7.99376 6.51274 8.30052 5.78966 8.88577 5.55672ZM14.0403 2.53125H12.9595C10.5231 2.53125 8.90158 2.53576 7.67342 2.70663C6.50702 2.8689 5.96938 3.15104 5.5921 3.50364C5.21479 3.85622 4.86946 4.39928 4.51285 5.6603C4.13738 6.98809 3.8346 8.78204 3.38559 11.4785C2.75621 15.2584 2.33426 17.8257 2.2593 19.7594C2.18705 21.6235 2.46442 22.4159 2.85388 22.9443C3.24333 23.4726 3.88386 23.9257 5.5241 24.1893C7.22579 24.4627 9.54444 24.4688 12.9595 24.4688H14.0403C17.4556 24.4688 19.7743 24.4627 21.4759 24.1893C23.1161 23.9257 23.7566 23.4726 24.1461 22.9443C24.5356 22.4159 24.813 21.6235 24.7407 19.7594C24.6658 17.8257 24.2438 15.2584 23.6144 11.4785C23.1654 8.78204 22.8626 6.98809 22.4872 5.6603C22.1305 4.39928 21.7852 3.85622 21.4079 3.50364C21.0307 3.15104 20.493 2.8689 19.3266 2.70663C18.0984 2.53576 16.4767 2.53125 14.0403 2.53125ZM4.1565 1.55581C2.49173 3.11163 2.05321 5.74513 1.1762 11.0121C-0.0570218 18.4184 -0.673634 22.1216 1.12411 24.5607C2.92185 27 6.26778 27 12.9595 27H14.0403C20.7322 27 24.0781 27 25.8759 24.5607C27.6736 22.1216 27.057 18.4184 25.8238 11.0121C24.9468 5.74513 24.5083 3.11163 22.8435 1.55581C21.1787 -2.01166e-07 18.7993 0 14.0403 0H12.9595C8.20073 0 5.82129 -2.01166e-07 4.1565 1.55581Z" fill="white"/>
</svg>
