<svg width="270" height="52" viewBox="0 0 270 52" fill="none" xmlns="http://www.w3.org/2000/svg">
<path d="M39.5 52C32.5964 52 27 46.4036 27 39.5C27 32.5964 32.5964 27 39.5 27C42.7826 27 52 27.0001 52 27.0001C52 27.0001 52 35.879 52 39.5C52 46.4036 46.4036 52 39.5 52Z" fill="#35A252"/>
<path d="M1.09278e-06 39.5C1.69631e-06 32.5964 5.59644 27 12.5 27C19.4036 27 25 32.5964 25 39.5C25 42.7826 24.9999 52 24.9999 52C24.9999 52 16.121 52 12.5 52C5.59644 52 4.89256e-07 46.4036 1.09278e-06 39.5Z" fill="#35A252"/>
<path d="M52 12.5C52 19.4036 46.4036 25 39.5 25C32.5964 25 27 19.4036 27 12.5C27 9.21743 27.0001 0 27.0001 0C27.0001 0 35.879 0 39.5 0C46.4036 0 52 5.59644 52 12.5Z" fill="#35A252"/>
<path d="M12.5 1.49061e-07C19.4036 2.31385e-07 25 5.59644 25 12.5C25 19.4036 19.4036 25 12.5 25C9.21743 25 0 24.9999 0 24.9999C0 24.9999 1.05881e-07 16.121 1.49061e-07 12.5C2.31385e-07 5.59644 5.59644 6.67369e-08 12.5 1.49061e-07Z" fill="#35A252"/>
<path d="M86.8788 20.8377C86.8788 22.676 86.4288 24.3006 85.5288 25.7114C84.6717 27.0795 83.5145 28.1269 82.0573 28.8537C80.643 29.5805 79.143 29.9439 77.5573 29.9439C75.8859 29.9439 74.3001 29.5164 72.8001 28.6613L72.9287 28.0842L74.0215 28.1483L75.1144 28.0842C76.7859 27.8277 78.093 27.0795 79.0359 25.8397C79.9788 24.5571 80.4502 22.8684 80.4502 20.7735C80.4502 18.4222 79.9145 16.4556 78.843 14.8737C77.8144 13.2492 76.3787 12.4369 74.5358 12.4369C73.5501 12.4369 72.8215 12.7148 72.3501 13.2705C71.9215 13.8263 71.7072 14.4462 71.7072 15.1303V33.022C71.7072 34.7321 71.8358 36.0788 72.093 37.0621C72.393 38.0454 72.9073 39.0287 73.6358 40.012L74.1501 40.7816L73.6358 41.4228H62.45L62 40.2685C63.1143 39.9693 63.8857 39.6914 64.3143 39.4349C64.7857 39.1784 65.1072 38.815 65.2786 38.3447C65.45 37.8744 65.5357 37.1263 65.5357 36.1002V19.0421C65.5357 17.5458 65.4072 16.4128 65.15 15.6433C64.9357 14.831 64.4 14.1683 63.5429 13.6553L62.7714 13.2064L63.0286 12.3727C64.2715 11.988 65.8786 11.646 67.8501 11.3467C69.8644 11.0474 71.7715 10.8978 73.5715 10.8978C77.943 10.8978 81.243 11.817 83.4716 13.6553C85.7431 15.4509 86.8788 17.845 86.8788 20.8377Z" fill="#35A252"/>
<path d="M96.6423 37.7675C96.6423 39.0501 97.0495 39.6914 97.8637 39.6914C98.678 39.6914 99.4709 39.3707 100.242 38.7295L100.757 39.3707C99.2566 41.1236 97.3923 42 95.1637 42C93.6637 42 92.5708 41.658 91.8851 40.9739C91.1994 40.2472 90.8565 39.1142 90.8565 37.5752V14.0401C90.8565 13.4415 90.578 13.1423 90.0208 13.1423H87.9636L87.7708 12.501C88.5851 11.7315 89.6351 11.1329 90.9208 10.7054C92.2494 10.2351 93.5566 10 94.8423 10C95.3994 10 95.828 10.1283 96.128 10.3848C96.4709 10.5985 96.6423 10.9192 96.6423 11.3467V37.7675Z" fill="#35A252"/>
<path d="M109.569 27.2505C108.669 27.7635 107.597 28.02 106.355 28.02C105.455 28.02 104.747 27.7635 104.233 27.2505C103.719 26.6947 103.462 25.9252 103.462 24.9419C103.462 23.4883 104.169 22.334 105.583 21.479C107.04 20.5812 108.926 20.1323 111.24 20.1323C113.983 20.1323 116.126 20.7308 117.669 21.9279C119.255 23.1249 120.048 24.7495 120.048 26.8016V37.8958C120.048 39.0929 120.476 39.6914 121.333 39.6914C122.148 39.6914 122.94 39.3707 123.712 38.7295L124.226 39.3707C122.64 41.1236 120.755 42 118.569 42C117.283 42 116.298 41.6794 115.612 41.0381C114.969 40.3968 114.583 39.3921 114.455 38.024H114.198C113.512 39.2639 112.59 40.2472 111.433 40.9739C110.319 41.658 109.033 42 107.576 42C105.947 42 104.64 41.5084 103.655 40.5251C102.669 39.499 102.176 38.1737 102.176 36.5491C102.176 34.7108 103.055 33.2572 104.812 32.1884C106.569 31.1196 108.947 30.5852 111.947 30.5852C112.505 30.5852 113.297 30.6279 114.326 30.7134V27.507C114.326 25.4122 114.069 23.9158 113.555 23.018C113.04 22.0775 112.205 21.6072 111.047 21.6072C110.233 21.6072 109.59 21.8637 109.119 22.3768C108.647 22.8898 108.412 23.5524 108.412 24.3647C108.412 25.6473 108.797 26.6092 109.569 27.2505ZM110.533 38.7936C113.062 38.7936 114.326 36.5063 114.326 31.9319C112.183 31.9319 110.576 32.2953 109.505 33.022C108.433 33.7061 107.897 34.6894 107.897 35.9719C107.897 36.827 108.133 37.511 108.605 38.024C109.076 38.5371 109.719 38.7936 110.533 38.7936Z" fill="#35A252"/>
<path d="M148.027 37.7675C148.027 39.0501 148.434 39.6914 149.249 39.6914C150.063 39.6914 150.856 39.3707 151.627 38.7295L152.142 39.3707C150.556 41.1236 148.691 42 146.549 42C145.006 42 143.891 41.6152 143.206 40.8457C142.563 40.0334 142.241 38.7295 142.241 36.9339V27.1222C142.241 24.6426 141.449 23.4028 139.863 23.4028C138.32 23.4028 137.056 24.4502 136.07 26.5451C135.127 28.6399 134.656 31.3761 134.656 34.7535C134.656 36.0361 134.763 37.0835 134.977 37.8958C135.191 38.6653 135.534 39.4135 136.006 40.1403L136.52 40.7816L136.006 41.4228H126.684L126.298 40.3327L127.198 40.1403C127.884 39.9693 128.334 39.7128 128.548 39.3707C128.763 38.986 128.87 38.2592 128.87 37.1904V24.6854C128.87 23.8731 128.591 23.4669 128.034 23.4669H125.977L125.784 22.7615C126.641 22.0347 127.713 21.4362 128.998 20.9659C130.284 20.4957 131.57 20.2605 132.856 20.2605C133.413 20.2605 133.841 20.3888 134.141 20.6453C134.484 20.9018 134.656 21.2438 134.656 21.6713V27.1864C135.256 25.177 136.327 23.5097 137.87 22.1844C139.413 20.8163 141.041 20.1323 142.756 20.1323C144.599 20.1323 145.927 20.7308 146.741 21.9279C147.599 23.1249 148.027 25.0274 148.027 27.6353V37.7675Z" fill="#35A252"/>
<path d="M161.168 42C159.411 42 158.146 41.6152 157.375 40.8457C156.603 40.0334 156.218 38.7295 156.218 36.9339V23.3387H153.003C153.003 22.6119 153.046 22.1416 153.132 21.9279C153.218 21.7141 153.475 21.5431 153.903 21.4148C155.318 21.0301 156.432 20.4315 157.246 19.6192C158.061 18.8069 158.725 17.6313 159.239 16.0922C159.368 15.6219 159.582 15.344 159.882 15.2585C160.182 15.1303 160.911 15.0661 162.068 15.0661V20.8377H167.339C167.339 21.3935 167.253 21.9065 167.082 22.3768C166.911 22.8043 166.675 23.1249 166.375 23.3387H162.068V37.7675C162.068 39.0501 162.603 39.6914 163.675 39.6914C164.146 39.6914 164.661 39.5417 165.218 39.2425C165.818 38.9432 166.353 38.5371 166.825 38.024L167.339 38.6653C165.496 40.8884 163.439 42 161.168 42Z" fill="#35A252"/>
<path d="M194.1 42C189.514 42 186 40.5464 183.557 37.6393C181.157 34.7321 179.957 31.0127 179.957 26.481C179.957 21.9492 181.178 18.2298 183.621 15.3226C186.064 12.3727 189.6 10.8978 194.228 10.8978C197.186 10.8978 199.586 11.4749 201.429 12.6293C203.314 13.7408 204.257 15.2158 204.257 17.0541C204.257 18.8497 203.507 20.2605 202.007 21.2866C200.507 22.3126 198.621 22.8257 196.35 22.8257C197.636 21.4576 198.279 19.5979 198.279 17.2465C198.279 15.8784 197.85 14.7455 196.993 13.8477C196.178 12.9071 195.107 12.4369 193.778 12.4369C191.336 12.4369 189.536 13.8263 188.378 16.6052C187.264 19.3841 186.707 22.676 186.707 26.481C186.707 28.9178 187.05 31.1409 187.736 33.1503C188.464 35.1597 189.493 36.7629 190.821 37.9599C192.193 39.1142 193.757 39.6914 195.514 39.6914C197.529 39.6914 199.2 39.2852 200.529 38.4729C201.9 37.6179 203.143 36.4422 204.257 34.9459L205.029 35.523C203.871 37.4469 202.371 39.0073 200.529 40.2044C198.729 41.4015 196.586 42 194.1 42Z" fill="#35A252"/>
<path d="M214.16 27.2505C213.26 27.7635 212.188 28.02 210.945 28.02C210.045 28.02 209.338 27.7635 208.824 27.2505C208.31 26.6947 208.053 25.9252 208.053 24.9419C208.053 23.4883 208.76 22.334 210.174 21.479C211.631 20.5812 213.517 20.1323 215.831 20.1323C218.574 20.1323 220.717 20.7308 222.26 21.9279C223.846 23.1249 224.638 24.7495 224.638 26.8016V37.8958C224.638 39.0929 225.067 39.6914 225.924 39.6914C226.738 39.6914 227.531 39.3707 228.303 38.7295L228.817 39.3707C227.231 41.1236 225.346 42 223.16 42C221.874 42 220.888 41.6794 220.203 41.0381C219.56 40.3968 219.174 39.3921 219.046 38.024H218.788C218.103 39.2639 217.181 40.2472 216.024 40.9739C214.91 41.658 213.624 42 212.167 42C210.538 42 209.231 41.5084 208.245 40.5251C207.26 39.499 206.767 38.1737 206.767 36.5491C206.767 34.7108 207.645 33.2572 209.403 32.1884C211.16 31.1196 213.538 30.5852 216.538 30.5852C217.096 30.5852 217.888 30.6279 218.917 30.7134V27.507C218.917 25.4122 218.66 23.9158 218.146 23.018C217.631 22.0775 216.796 21.6072 215.638 21.6072C214.824 21.6072 214.181 21.8637 213.71 22.3768C213.238 22.8898 213.003 23.5524 213.003 24.3647C213.003 25.6473 213.388 26.6092 214.16 27.2505ZM215.124 38.7936C217.653 38.7936 218.917 36.5063 218.917 31.9319C216.774 31.9319 215.167 32.2953 214.095 33.022C213.024 33.7061 212.488 34.6894 212.488 35.9719C212.488 36.827 212.724 37.511 213.195 38.024C213.667 38.5371 214.31 38.7936 215.124 38.7936Z" fill="#35A252"/>
<path d="M244.261 20.1323C245.632 20.1323 246.747 20.5384 247.604 21.3507C248.461 22.1202 248.889 23.1249 248.889 24.3647C248.889 25.519 248.547 26.4596 247.861 27.1864C247.175 27.8704 246.275 28.2124 245.161 28.2124C244.304 28.2124 243.511 28.0414 242.782 27.6994C243.554 27.0581 243.939 26.0962 243.939 24.8136C243.939 24.2151 243.811 23.7448 243.554 23.4028C243.297 23.0608 242.954 22.8898 242.525 22.8898C241.497 22.8898 240.639 23.9372 239.954 26.0321C239.268 28.0842 238.925 30.6493 238.925 33.7275C238.925 35.3093 239.011 36.5705 239.182 37.511C239.396 38.4516 239.739 39.328 240.211 40.1403L240.725 40.7816L240.211 41.4228H230.889L230.504 40.3327L231.404 40.1403C232.089 39.9693 232.539 39.7128 232.754 39.3707C232.968 38.986 233.075 38.2592 233.075 37.1904V24.6854C233.075 23.8731 232.796 23.4669 232.239 23.4669H230.246L229.989 22.7615C230.804 22.0347 231.811 21.4362 233.011 20.9659C234.254 20.4957 235.475 20.2605 236.675 20.2605C237.232 20.2605 237.682 20.3888 238.025 20.6453C238.368 20.9018 238.539 21.2438 238.539 21.6713V26.3527H238.732C239.632 22.2057 241.475 20.1323 244.261 20.1323Z" fill="#35A252"/>
<path d="M262.928 39.8838C264.171 39.8838 265.264 39.67 266.207 39.2425C267.15 38.7722 268.071 38.0027 268.971 36.9339L269.743 37.511C268.757 38.9218 267.493 40.0334 265.95 40.8457C264.45 41.6152 262.8 42 261 42C259.028 42 257.25 41.5297 255.664 40.5892C254.121 39.6486 252.9 38.3661 252 36.7415C251.1 35.0741 250.65 33.1931 250.65 31.0982C250.65 27.7635 251.657 25.1129 253.671 23.1463C255.728 21.1369 258.45 20.1323 261.836 20.1323C264.236 20.1323 266.186 20.7094 267.686 21.8637C269.229 22.9753 270 24.4289 270 26.2244C270 28.2766 269.121 29.9225 267.364 31.1623C265.65 32.3594 263.293 32.9579 260.293 32.9579C259.093 32.9579 258 32.8724 257.014 32.7014C257.228 34.9245 257.871 36.6774 258.943 37.9599C260.014 39.2425 261.343 39.8838 262.928 39.8838ZM261.128 21.6713C259.8 21.6713 258.75 22.4836 257.978 24.1082C257.25 25.69 256.886 27.9132 256.886 30.7776V31.8036C257.357 31.8036 257.936 31.7609 258.621 31.6754C260.421 31.4616 261.793 30.8844 262.736 29.9439C263.721 28.9606 264.214 27.678 264.214 26.0962C264.214 24.8136 263.914 23.7662 263.314 22.9539C262.757 22.0989 262.028 21.6713 261.128 21.6713Z" fill="#35A252"/>
</svg>
