<svg width="60" height="61" viewBox="0 0 60 61" fill="none" xmlns="http://www.w3.org/2000/svg">
<path d="M29.9782 0.5C24.1902 0.504215 18.527 2.18268 13.6714 5.333C8.8159 8.48332 4.97534 12.971 2.61285 18.2549C0.250362 23.5388 -0.533177 29.3932 0.356713 35.1124C1.2466 40.8316 3.77192 46.1712 7.62817 50.4875C8.21552 51.1845 8.8415 51.8481 9.50317 52.475C9.91567 52.8687 10.3469 53.2625 10.7969 53.6375C11.2469 54.0125 11.9032 54.5 12.4469 54.875H11.2282C10.7309 54.875 10.254 55.0725 9.90235 55.4242C9.55071 55.7758 9.35317 56.2527 9.35317 56.75C9.35317 57.2473 9.55071 57.7242 9.90235 58.0758C10.254 58.4275 10.7309 58.625 11.2282 58.625H16.8532C17.3505 58.625 17.8274 58.4275 18.179 58.0758C18.5306 57.7242 18.7282 57.2473 18.7282 56.75V51.125C18.7282 50.6277 18.5306 50.1508 18.179 49.7992C17.8274 49.4475 17.3505 49.25 16.8532 49.25C16.3559 49.25 15.879 49.4475 15.5273 49.7992C15.1757 50.1508 14.9782 50.6277 14.9782 51.125V52.0062C14.4157 51.6125 13.8344 51.2 13.2344 50.7313C12.6344 50.2625 12.5032 50.0938 12.1657 49.7563C11.8282 49.4188 10.9844 48.6125 10.4219 47.9938C6.41625 43.5124 4.06984 37.7921 3.77476 31.7887C3.47968 25.7853 5.25381 19.8624 8.8007 15.0099C12.3476 10.1573 17.4524 6.66892 23.2621 5.12767C29.0718 3.58641 35.2344 4.08563 40.7203 6.54191C46.2061 8.99818 50.6829 13.2627 53.4025 18.6229C56.122 23.9831 56.9197 30.1143 55.6622 35.9919C54.4046 41.8696 51.1681 47.1376 46.4933 50.9158C41.8186 54.694 35.9888 56.7534 29.9782 56.75C28.2147 56.7574 26.4552 56.5815 24.7282 56.225C24.4819 56.1758 24.2284 56.1755 23.9821 56.2242C23.7358 56.2729 23.5014 56.3697 23.2925 56.509C23.0836 56.6483 22.9041 56.8274 22.7644 57.036C22.6247 57.2447 22.5274 57.4788 22.4782 57.725C22.4289 57.9712 22.4287 58.2247 22.4774 58.4711C22.5261 58.7174 22.6229 58.9517 22.7622 59.1607C22.9015 59.3696 23.0805 59.549 23.2892 59.6888C23.4978 59.8285 23.7319 59.9258 23.9782 59.975C28.0634 60.7472 32.2645 60.6618 36.3149 59.7242C40.3654 58.7867 44.1767 57.0175 47.5072 54.5289C50.8376 52.0403 53.6145 48.8866 55.6615 45.268C57.7085 41.6493 58.9811 37.6447 59.3984 33.5081C59.8157 29.3716 59.3687 25.1935 58.0856 21.2389C56.8026 17.2843 54.7116 13.6395 51.9453 10.5359C49.179 7.4322 45.7978 4.93741 42.0162 3.20976C38.2347 1.48212 34.1353 0.559352 29.9782 0.5Z" fill="#2D415D"/>
<path d="M48.7285 30.5C48.7285 26.7916 47.6289 23.1665 45.5686 20.0831C43.5083 16.9996 40.58 14.5964 37.1538 13.1773C33.7277 11.7581 29.9577 11.3868 26.3206 12.1103C22.6834 12.8338 19.3425 14.6195 16.7203 17.2418C14.098 19.864 12.3123 23.2049 11.5888 26.8421C10.8653 30.4792 11.2366 34.2492 12.6558 37.6753C14.0749 41.1014 16.4782 44.0298 19.5616 46.0901C22.645 48.1503 26.2701 49.25 29.9785 49.25C34.9513 49.25 39.7205 47.2746 43.2368 43.7583C46.7531 40.242 48.7285 35.4728 48.7285 30.5ZM14.9785 30.5C14.9785 27.5333 15.8583 24.6332 17.5065 22.1665C19.1547 19.6997 21.4974 17.7771 24.2383 16.6418C26.9792 15.5065 29.9952 15.2095 32.9049 15.7882C35.8146 16.367 38.4873 17.7956 40.5851 19.8934C42.6829 21.9912 44.1115 24.6639 44.6903 27.5737C45.2691 30.4834 44.972 33.4994 43.8367 36.2403C42.7014 38.9812 40.7788 41.3238 38.3121 42.972C35.8453 44.6203 32.9452 45.5 29.9785 45.5C26.0003 45.5 22.185 43.9197 19.3719 41.1066C16.5589 38.2936 14.9785 34.4783 14.9785 30.5Z" fill="#2D415D"/>
<path d="M31.8535 39.875V39.5375C33.0936 39.0875 34.1361 38.216 34.7987 37.0754C35.4614 35.9347 35.702 34.5974 35.4786 33.2973C35.2552 31.9972 34.582 30.8169 33.5766 29.9628C32.5712 29.1088 31.2977 28.6352 29.9785 28.625C29.4812 28.625 29.0043 28.4275 28.6527 28.0758C28.3011 27.7242 28.1035 27.2473 28.1035 26.75C28.1035 26.2527 28.3011 25.7758 28.6527 25.4242C29.0043 25.0725 29.4812 24.875 29.9785 24.875H33.7285C34.2258 24.875 34.7027 24.6775 35.0543 24.3258C35.406 23.9742 35.6035 23.4973 35.6035 23C35.6035 22.5027 35.406 22.0258 35.0543 21.6742C34.7027 21.3225 34.2258 21.125 33.7285 21.125H31.8535C31.8535 20.6277 31.656 20.1508 31.3043 19.7992C30.9527 19.4475 30.4758 19.25 29.9785 19.25C29.4812 19.25 29.0043 19.4475 28.6527 19.7992C28.3011 20.1508 28.1035 20.6277 28.1035 21.125V21.4625C26.8634 21.9125 25.821 22.784 25.1583 23.9246C24.4957 25.0653 24.255 26.4026 24.4784 27.7027C24.7018 29.0028 25.375 30.1831 26.3804 31.0372C27.3858 31.8912 28.6594 32.3648 29.9785 32.375C30.4758 32.375 30.9527 32.5725 31.3043 32.9242C31.656 33.2758 31.8535 33.7527 31.8535 34.25C31.8535 34.7473 31.656 35.2242 31.3043 35.5758C30.9527 35.9275 30.4758 36.125 29.9785 36.125H26.2285C25.7312 36.125 25.2543 36.3225 24.9027 36.6742C24.5511 37.0258 24.3535 37.5027 24.3535 38C24.3535 38.4973 24.5511 38.9742 24.9027 39.3258C25.2543 39.6775 25.7312 39.875 26.2285 39.875H28.1035C28.1035 40.3723 28.3011 40.8492 28.6527 41.2008C29.0043 41.5525 29.4812 41.75 29.9785 41.75C30.4758 41.75 30.9527 41.5525 31.3043 41.2008C31.656 40.8492 31.8535 40.3723 31.8535 39.875Z" fill="#2D415D"/>
</svg>
