<svg width="60" height="42" viewBox="0 0 60 42" fill="none" xmlns="http://www.w3.org/2000/svg">
<path d="M0 0.5V4.25H35.625V32.375H24.082C23.2471 29.1523 20.3467 26.75 16.875 26.75C13.4033 26.75 10.5029 29.1523 9.66797 32.375H7.5V23H3.75V36.125H9.66797C10.5029 39.3477 13.4033 41.75 16.875 41.75C20.3467 41.75 23.2471 39.3477 24.082 36.125H39.668C40.5029 39.3477 43.4033 41.75 46.875 41.75C50.3467 41.75 53.2471 39.3477 54.082 36.125H60V20.832L59.8828 20.5391L56.1328 9.28906L55.7227 8H39.375V0.5H0ZM1.875 8V11.75H18.75V8H1.875ZM39.375 11.75H53.0273L56.25 21.3594V32.375H54.082C53.2471 29.1523 50.3467 26.75 46.875 26.75C43.4033 26.75 40.5029 29.1523 39.668 32.375H39.375V11.75ZM3.75 15.5V19.25H15V15.5H3.75ZM16.875 30.5C18.9697 30.5 20.625 32.1553 20.625 34.25C20.625 36.3447 18.9697 38 16.875 38C14.7803 38 13.125 36.3447 13.125 34.25C13.125 32.1553 14.7803 30.5 16.875 30.5ZM46.875 30.5C48.9697 30.5 50.625 32.1553 50.625 34.25C50.625 36.3447 48.9697 38 46.875 38C44.7803 38 43.125 36.3447 43.125 34.25C43.125 32.1553 44.7803 30.5 46.875 30.5Z" fill="#2D415D"/>
</svg>
