<svg width="49" height="51" viewBox="0 0 49 51" fill="none" xmlns="http://www.w3.org/2000/svg">
<path fill-rule="evenodd" clip-rule="evenodd" d="M44.5001 20.95C43.7251 13 39.0251 0.5 24.5001 0.5C9.97512 0.5 5.27512 13 4.50012 20.95C1.7814 21.9818 -0.0119113 24.5921 5.95669e-05 27.5V31C5.95669e-05 34.866 3.13413 38 7.00012 38C10.8661 38 14.0001 34.866 14.0001 31V27.5C13.9876 24.6549 12.2601 22.0982 9.62512 21.025C10.1251 16.425 12.5751 5.5 24.5001 5.5C36.4251 5.5 38.8501 16.425 39.3501 21.025C36.7205 22.1006 35.0017 24.6589 35.0001 27.5V31C35.011 33.6875 36.5541 36.1332 38.9751 37.3C37.9251 39.275 35.2501 41.95 28.6751 42.75C27.3608 40.7542 24.818 39.9675 22.6062 40.8722C20.3945 41.777 19.1321 44.1203 19.5933 46.4651C20.0546 48.8098 22.1105 50.5 24.5001 50.5C26.3885 50.4895 28.1098 49.4161 28.9501 47.725C39.6751 46.5 43.1001 40.975 44.1751 37.725C47.0834 36.7829 49.0393 34.0568 49.0001 31V27.5C49.0122 24.5921 47.2188 21.9818 44.5001 20.95ZM9.00012 31C9.00012 32.1046 8.10469 33 7.00012 33C5.89555 33 5.00012 32.1046 5.00012 31V27.5C5.00012 26.7855 5.38132 26.1252 6.00012 25.7679C6.61892 25.4107 7.38132 25.4107 8.00012 25.7679C8.61892 26.1252 9.00012 26.7855 9.00012 27.5V31ZM40.0001 27.5C40.0001 26.3954 40.8955 25.5 42.0001 25.5C43.1047 25.5 44.0001 26.3954 44.0001 27.5V31C44.0001 32.1046 43.1047 33 42.0001 33C40.8955 33 40.0001 32.1046 40.0001 31V27.5Z" fill="#2D415D"/>
</svg>
